<svg id="Layer_1" data-name="Layer 1" xmlns="http://www.w3.org/2000/svg" viewBox="0 0 512 512"><defs><style>.cls-1{fill:#d9e4e8;}.cls-2{fill:#141f38;}.cls-3{opacity:0.14;}.cls-4{fill:#17292d;}.cls-5{fill:#f4607f;}.cls-6{fill:#79d3d3;}</style></defs><title>ufo_style_3</title><path class="cls-1" d="M396.8,128H115.2a102.4,102.4,0,0,0,0,204.8h51.2V376a8,8,0,0,0,8,8H337.6a8,8,0,0,0,8-8V332.8h51.2a102.4,102.4,0,0,0,0-204.8Z"/><path class="cls-2" d="M357.92,115.2H154.08c-.19,1.87-.32,3.75-.4,5.64,9.34,7.56,45.84,20,102.32,20s93-12.4,102.32-20C358.24,119,358.11,117.07,357.92,115.2Z"/><g class="cls-3"><path class="cls-4" d="M396.8,140.8c-.52,0-1,.07-1.54.08a102.35,102.35,0,0,1,0,179c.52,0,1,.08,1.54.08a89.6,89.6,0,0,0,0-179.2Z"/></g><path class="cls-2" d="M140.8,230.4A12.8,12.8,0,1,1,128,217.6,12.81,12.81,0,0,1,140.8,230.4Z"/><path class="cls-2" d="M268.8,230.4A12.8,12.8,0,1,1,256,217.6,12.81,12.81,0,0,1,268.8,230.4Z"/><path class="cls-2" d="M396.8,230.4A12.8,12.8,0,1,1,384,217.6,12.81,12.81,0,0,1,396.8,230.4Z"/><path class="cls-5" d="M384,256a25.6,25.6,0,1,1,25.6-25.6A25.62,25.62,0,0,1,384,256Z"/><path class="cls-5" d="M256,256a25.6,25.6,0,1,1,25.6-25.6A25.62,25.62,0,0,1,256,256Z"/><path class="cls-5" d="M128,256a25.6,25.6,0,1,1,25.6-25.6A25.62,25.62,0,0,1,128,256Z"/><path class="cls-6" d="M256,153.6c-74.83,0-115.2-20.44-115.2-28.8,0-61.76,51.68-112,115.2-112S371.2,63,371.2,124.8C371.2,133.16,330.83,153.6,256,153.6Z"/><g class="cls-3"><path class="cls-4" d="M256,8.32a117.19,117.19,0,0,0-46.43,9.57c56.33,15.61,97.63,66,97.63,125.95,0,3.81-1.65,7.48-4.47,11C343,149,371.2,135.91,371.2,120.64,371.2,58.61,319.62,8.32,256,8.32Z"/></g><path class="cls-2" d="M204.8,486.4A12.8,12.8,0,0,1,192,473.6V435.2a12.8,12.8,0,1,1,25.6,0v38.4A12.8,12.8,0,0,1,204.8,486.4Z"/><path class="cls-2" d="M256,512a12.8,12.8,0,0,1-12.8-12.8v-64a12.8,12.8,0,1,1,25.6,0v64A12.8,12.8,0,0,1,256,512Z"/><path class="cls-2" d="M307.2,486.4a12.8,12.8,0,0,1-12.8-12.8V435.2a12.8,12.8,0,0,1,25.6,0v38.4A12.8,12.8,0,0,1,307.2,486.4Z"/><path class="cls-2" d="M512,230.4c0-63.36-51.84-115.2-115.2-115.2H383.63C378.6,50.75,323.38,0,256,0S133.4,50.75,128.37,115.2H115.2C51.84,115.2,0,167,0,230.4c0,60.14,46.7,109.9,105.63,114.79l-27,45a12.81,12.81,0,0,0,22,13.18l34.67-57.79H153.6v41.2a10,10,0,0,0,10,10H348.4a10,10,0,0,0,10-10V345.6h18.35l34.67,57.79a12.81,12.81,0,0,0,22-13.18l-27-45C465.3,340.3,512,290.54,512,230.4ZM154.08,115.2C159.07,65,202.87,25.6,256,25.6S352.93,65,357.92,115.2c.19,1.87.32,3.75.4,5.64-9.34,7.56-45.84,20-102.32,20s-93-12.4-102.32-20C153.76,119,153.89,117.07,154.08,115.2ZM115.2,140.8h22.62c19.29,15,64.94,25.6,118.18,25.6s98.89-10.57,118.18-25.6H396.8a89.72,89.72,0,0,1,88.68,76.8H420.21a38.41,38.41,0,0,0-72.42,0H292.21a38.41,38.41,0,0,0-72.42,0H164.21a38.41,38.41,0,0,0-72.42,0H26.52A89.72,89.72,0,0,1,115.2,140.8Zm281.6,89.6A12.8,12.8,0,1,1,384,217.6,12.81,12.81,0,0,1,396.8,230.4Zm-128,0A12.8,12.8,0,1,1,256,217.6,12.81,12.81,0,0,1,268.8,230.4Zm-128,0A12.8,12.8,0,1,1,128,217.6,12.81,12.81,0,0,1,140.8,230.4Zm192,134.8a6,6,0,0,1-6,6H185.2a6,6,0,0,1-6-6V345.6H332.8Zm64-45.2H115.2a89.72,89.72,0,0,1-88.68-76.8H91.79a38.41,38.41,0,0,0,72.42,0h55.58a38.41,38.41,0,0,0,72.42,0h55.58a38.41,38.41,0,0,0,72.42,0h65.27A89.72,89.72,0,0,1,396.8,320Z"/></svg>